<mxfile host="app.diagrams.net" modified="2023-05-02T02:13:01.141Z" agent="Mozilla/5.0 (Windows NT 10.0; Win64; x64) AppleWebKit/537.36 (KHTML, like Gecko) Chrome/112.0.0.0 Safari/537.36" etag="i_inMejax5-pIP0fRlXe" version="21.2.3" type="github">
  <diagram id="C5RBs43oDa-KdzZeNtuy" name="Page-1">
    <mxGraphModel dx="2927" dy="1174" grid="1" gridSize="10" guides="1" tooltips="1" connect="1" arrows="1" fold="1" page="1" pageScale="1" pageWidth="827" pageHeight="1169" math="0" shadow="0">
      <root>
        <mxCell id="WIyWlLk6GJQsqaUBKTNV-0" />
        <mxCell id="WIyWlLk6GJQsqaUBKTNV-1" parent="WIyWlLk6GJQsqaUBKTNV-0" />
        <mxCell id="zkfFHV4jXpPFQw0GAbJ--0" value="Airline&#xa;" style="swimlane;fontStyle=2;align=center;verticalAlign=top;childLayout=stackLayout;horizontal=1;startSize=26;horizontalStack=0;resizeParent=1;resizeLast=0;collapsible=1;marginBottom=0;rounded=0;shadow=0;strokeWidth=1;" parent="WIyWlLk6GJQsqaUBKTNV-1" vertex="1">
          <mxGeometry x="200" y="40" width="160" height="294" as="geometry">
            <mxRectangle x="230" y="140" width="160" height="26" as="alternateBounds" />
          </mxGeometry>
        </mxCell>
        <mxCell id="zkfFHV4jXpPFQw0GAbJ--1" value="- airlineName : string" style="text;align=left;verticalAlign=top;spacingLeft=4;spacingRight=4;overflow=hidden;rotatable=0;points=[[0,0.5],[1,0.5]];portConstraint=eastwest;" parent="zkfFHV4jXpPFQw0GAbJ--0" vertex="1">
          <mxGeometry y="26" width="160" height="26" as="geometry" />
        </mxCell>
        <mxCell id="KCWYJv6NmKcUc3A-nOqs-9" value="" style="line;html=1;strokeWidth=1;align=left;verticalAlign=middle;spacingTop=-1;spacingLeft=3;spacingRight=3;rotatable=0;labelPosition=right;points=[];portConstraint=eastwest;" vertex="1" parent="zkfFHV4jXpPFQw0GAbJ--0">
          <mxGeometry y="52" width="160" height="8" as="geometry" />
        </mxCell>
        <mxCell id="zkfFHV4jXpPFQw0GAbJ--2" value="+ getEmployeeSalary(): " style="text;align=left;verticalAlign=top;spacingLeft=4;spacingRight=4;overflow=hidden;rotatable=0;points=[[0,0.5],[1,0.5]];portConstraint=eastwest;rounded=0;shadow=0;html=0;" parent="zkfFHV4jXpPFQw0GAbJ--0" vertex="1">
          <mxGeometry y="60" width="160" height="26" as="geometry" />
        </mxCell>
        <mxCell id="KCWYJv6NmKcUc3A-nOqs-4" value="&amp;nbsp; + addAirline():" style="text;html=1;align=left;verticalAlign=middle;resizable=0;points=[];autosize=1;strokeColor=none;fillColor=none;" vertex="1" parent="zkfFHV4jXpPFQw0GAbJ--0">
          <mxGeometry y="86" width="160" height="30" as="geometry" />
        </mxCell>
        <mxCell id="zkfFHV4jXpPFQw0GAbJ--3" value="+ countReturnTicket():  " style="text;align=left;verticalAlign=top;spacingLeft=4;spacingRight=4;overflow=hidden;rotatable=0;points=[[0,0.5],[1,0.5]];portConstraint=eastwest;rounded=0;shadow=0;html=0;" parent="zkfFHV4jXpPFQw0GAbJ--0" vertex="1">
          <mxGeometry y="116" width="160" height="26" as="geometry" />
        </mxCell>
        <mxCell id="KCWYJv6NmKcUc3A-nOqs-12" value="+ getEmployee():  " style="text;align=left;verticalAlign=top;spacingLeft=4;spacingRight=4;overflow=hidden;rotatable=0;points=[[0,0.5],[1,0.5]];portConstraint=eastwest;rounded=0;shadow=0;html=0;" vertex="1" parent="zkfFHV4jXpPFQw0GAbJ--0">
          <mxGeometry y="142" width="160" height="26" as="geometry" />
        </mxCell>
        <mxCell id="KCWYJv6NmKcUc3A-nOqs-11" value="+ getPassanger():  " style="text;align=left;verticalAlign=top;spacingLeft=4;spacingRight=4;overflow=hidden;rotatable=0;points=[[0,0.5],[1,0.5]];portConstraint=eastwest;rounded=0;shadow=0;html=0;" vertex="1" parent="zkfFHV4jXpPFQw0GAbJ--0">
          <mxGeometry y="168" width="160" height="26" as="geometry" />
        </mxCell>
        <mxCell id="KCWYJv6NmKcUc3A-nOqs-10" value="+ addEmployee(): " style="text;align=left;verticalAlign=top;spacingLeft=4;spacingRight=4;overflow=hidden;rotatable=0;points=[[0,0.5],[1,0.5]];portConstraint=eastwest;rounded=0;shadow=0;html=0;" vertex="1" parent="zkfFHV4jXpPFQw0GAbJ--0">
          <mxGeometry y="194" width="160" height="26" as="geometry" />
        </mxCell>
        <mxCell id="KCWYJv6NmKcUc3A-nOqs-2" value="&amp;nbsp; + addPassanger(): " style="text;html=1;align=left;verticalAlign=middle;resizable=0;points=[];autosize=1;strokeColor=none;fillColor=none;" vertex="1" parent="zkfFHV4jXpPFQw0GAbJ--0">
          <mxGeometry y="220" width="160" height="30" as="geometry" />
        </mxCell>
        <mxCell id="KCWYJv6NmKcUc3A-nOqs-3" value="+ addEmployee(): " style="text;align=left;verticalAlign=top;spacingLeft=4;spacingRight=4;overflow=hidden;rotatable=0;points=[[0,0.5],[1,0.5]];portConstraint=eastwest;rounded=0;shadow=0;html=0;" vertex="1" parent="zkfFHV4jXpPFQw0GAbJ--0">
          <mxGeometry y="250" width="160" height="22" as="geometry" />
        </mxCell>
        <mxCell id="KCWYJv6NmKcUc3A-nOqs-87" value="+ addEmployee(): " style="text;align=left;verticalAlign=top;spacingLeft=4;spacingRight=4;overflow=hidden;rotatable=0;points=[[0,0.5],[1,0.5]];portConstraint=eastwest;rounded=0;shadow=0;html=0;" vertex="1" parent="zkfFHV4jXpPFQw0GAbJ--0">
          <mxGeometry y="272" width="160" height="22" as="geometry" />
        </mxCell>
        <mxCell id="zkfFHV4jXpPFQw0GAbJ--17" value="Airplane" style="swimlane;fontStyle=0;align=center;verticalAlign=top;childLayout=stackLayout;horizontal=1;startSize=26;horizontalStack=0;resizeParent=1;resizeLast=0;collapsible=1;marginBottom=0;rounded=0;shadow=0;strokeWidth=1;" parent="WIyWlLk6GJQsqaUBKTNV-1" vertex="1">
          <mxGeometry x="477.33000000000004" y="40" width="160" height="160" as="geometry">
            <mxRectangle x="550" y="140" width="160" height="26" as="alternateBounds" />
          </mxGeometry>
        </mxCell>
        <mxCell id="zkfFHV4jXpPFQw0GAbJ--18" value="- airlinePlaneName : string&#xa;" style="text;align=left;verticalAlign=top;spacingLeft=4;spacingRight=4;overflow=hidden;rotatable=0;points=[[0,0.5],[1,0.5]];portConstraint=eastwest;" parent="zkfFHV4jXpPFQw0GAbJ--17" vertex="1">
          <mxGeometry y="26" width="160" height="26" as="geometry" />
        </mxCell>
        <mxCell id="zkfFHV4jXpPFQw0GAbJ--19" value="- takeOfTime : string" style="text;align=left;verticalAlign=top;spacingLeft=4;spacingRight=4;overflow=hidden;rotatable=0;points=[[0,0.5],[1,0.5]];portConstraint=eastwest;rounded=0;shadow=0;html=0;" parent="zkfFHV4jXpPFQw0GAbJ--17" vertex="1">
          <mxGeometry y="52" width="160" height="28" as="geometry" />
        </mxCell>
        <mxCell id="zkfFHV4jXpPFQw0GAbJ--20" value="- numberOfSeat : number" style="text;align=left;verticalAlign=top;spacingLeft=4;spacingRight=4;overflow=hidden;rotatable=0;points=[[0,0.5],[1,0.5]];portConstraint=eastwest;rounded=0;shadow=0;html=0;" parent="zkfFHV4jXpPFQw0GAbJ--17" vertex="1">
          <mxGeometry y="80" width="160" height="24" as="geometry" />
        </mxCell>
        <mxCell id="zkfFHV4jXpPFQw0GAbJ--21" value="- flights : Flight" style="text;align=left;verticalAlign=top;spacingLeft=4;spacingRight=4;overflow=hidden;rotatable=0;points=[[0,0.5],[1,0.5]];portConstraint=eastwest;rounded=0;shadow=0;html=0;" parent="zkfFHV4jXpPFQw0GAbJ--17" vertex="1">
          <mxGeometry y="104" width="160" height="26" as="geometry" />
        </mxCell>
        <mxCell id="zkfFHV4jXpPFQw0GAbJ--22" value="- route : Route" style="text;align=left;verticalAlign=top;spacingLeft=4;spacingRight=4;overflow=hidden;rotatable=0;points=[[0,0.5],[1,0.5]];portConstraint=eastwest;rounded=0;shadow=0;html=0;" parent="zkfFHV4jXpPFQw0GAbJ--17" vertex="1">
          <mxGeometry y="130" width="160" height="26" as="geometry" />
        </mxCell>
        <mxCell id="KCWYJv6NmKcUc3A-nOqs-13" value="Airport" style="swimlane;fontStyle=2;align=center;verticalAlign=top;childLayout=stackLayout;horizontal=1;startSize=26;horizontalStack=0;resizeParent=1;resizeLast=0;collapsible=1;marginBottom=0;rounded=0;shadow=0;strokeWidth=1;" vertex="1" parent="WIyWlLk6GJQsqaUBKTNV-1">
          <mxGeometry x="-80" y="40" width="160" height="240" as="geometry">
            <mxRectangle x="230" y="140" width="160" height="26" as="alternateBounds" />
          </mxGeometry>
        </mxCell>
        <mxCell id="KCWYJv6NmKcUc3A-nOqs-14" value="-Â  airportName : string" style="text;align=left;verticalAlign=top;spacingLeft=4;spacingRight=4;overflow=hidden;rotatable=0;points=[[0,0.5],[1,0.5]];portConstraint=eastwest;" vertex="1" parent="KCWYJv6NmKcUc3A-nOqs-13">
          <mxGeometry y="26" width="160" height="26" as="geometry" />
        </mxCell>
        <mxCell id="KCWYJv6NmKcUc3A-nOqs-15" value="" style="line;html=1;strokeWidth=1;align=left;verticalAlign=middle;spacingTop=-1;spacingLeft=3;spacingRight=3;rotatable=0;labelPosition=right;points=[];portConstraint=eastwest;" vertex="1" parent="KCWYJv6NmKcUc3A-nOqs-13">
          <mxGeometry y="52" width="160" height="8" as="geometry" />
        </mxCell>
        <mxCell id="KCWYJv6NmKcUc3A-nOqs-16" value="+ addPassenger(): " style="text;align=left;verticalAlign=top;spacingLeft=4;spacingRight=4;overflow=hidden;rotatable=0;points=[[0,0.5],[1,0.5]];portConstraint=eastwest;rounded=0;shadow=0;html=0;" vertex="1" parent="KCWYJv6NmKcUc3A-nOqs-13">
          <mxGeometry y="60" width="160" height="26" as="geometry" />
        </mxCell>
        <mxCell id="KCWYJv6NmKcUc3A-nOqs-17" value="+ getPasssanger(): " style="text;html=1;align=left;verticalAlign=middle;resizable=0;points=[];autosize=1;strokeColor=none;fillColor=none;" vertex="1" parent="KCWYJv6NmKcUc3A-nOqs-13">
          <mxGeometry y="86" width="160" height="30" as="geometry" />
        </mxCell>
        <mxCell id="KCWYJv6NmKcUc3A-nOqs-18" value="+ addBooking(): " style="text;align=left;verticalAlign=top;spacingLeft=4;spacingRight=4;overflow=hidden;rotatable=0;points=[[0,0.5],[1,0.5]];portConstraint=eastwest;rounded=0;shadow=0;html=0;" vertex="1" parent="KCWYJv6NmKcUc3A-nOqs-13">
          <mxGeometry y="116" width="160" height="26" as="geometry" />
        </mxCell>
        <mxCell id="KCWYJv6NmKcUc3A-nOqs-19" value="+ getBookings():  " style="text;html=1;align=left;verticalAlign=middle;resizable=0;points=[];autosize=1;strokeColor=none;fillColor=none;" vertex="1" parent="KCWYJv6NmKcUc3A-nOqs-13">
          <mxGeometry y="142" width="160" height="30" as="geometry" />
        </mxCell>
        <mxCell id="KCWYJv6NmKcUc3A-nOqs-20" value="+ addGate(): " style="text;align=left;verticalAlign=top;spacingLeft=4;spacingRight=4;overflow=hidden;rotatable=0;points=[[0,0.5],[1,0.5]];portConstraint=eastwest;rounded=0;shadow=0;html=0;" vertex="1" parent="KCWYJv6NmKcUc3A-nOqs-13">
          <mxGeometry y="172" width="160" height="26" as="geometry" />
        </mxCell>
        <mxCell id="KCWYJv6NmKcUc3A-nOqs-21" value="+ getGateByFlightNumber():   " style="text;align=left;verticalAlign=top;spacingLeft=4;spacingRight=4;overflow=hidden;rotatable=0;points=[[0,0.5],[1,0.5]];portConstraint=eastwest;rounded=0;shadow=0;html=0;" vertex="1" parent="KCWYJv6NmKcUc3A-nOqs-13">
          <mxGeometry y="198" width="160" height="26" as="geometry" />
        </mxCell>
        <mxCell id="KCWYJv6NmKcUc3A-nOqs-26" value="Boarding Pass" style="swimlane;fontStyle=2;align=center;verticalAlign=top;childLayout=stackLayout;horizontal=1;startSize=26;horizontalStack=0;resizeParent=1;resizeLast=0;collapsible=1;marginBottom=0;rounded=0;shadow=0;strokeWidth=1;" vertex="1" parent="WIyWlLk6GJQsqaUBKTNV-1">
          <mxGeometry x="-360" y="40" width="160" height="160" as="geometry">
            <mxRectangle x="230" y="140" width="160" height="26" as="alternateBounds" />
          </mxGeometry>
        </mxCell>
        <mxCell id="KCWYJv6NmKcUc3A-nOqs-27" value="- flightName : string" style="text;align=left;verticalAlign=top;spacingLeft=4;spacingRight=4;overflow=hidden;rotatable=0;points=[[0,0.5],[1,0.5]];portConstraint=eastwest;" vertex="1" parent="KCWYJv6NmKcUc3A-nOqs-26">
          <mxGeometry y="26" width="160" height="26" as="geometry" />
        </mxCell>
        <mxCell id="KCWYJv6NmKcUc3A-nOqs-36" value="- from : string&lt;br/&gt;" style="text;html=1;align=left;verticalAlign=middle;resizable=0;points=[];autosize=1;strokeColor=none;fillColor=none;" vertex="1" parent="KCWYJv6NmKcUc3A-nOqs-26">
          <mxGeometry y="52" width="160" height="30" as="geometry" />
        </mxCell>
        <mxCell id="KCWYJv6NmKcUc3A-nOqs-37" value="- to : string" style="text;html=1;align=left;verticalAlign=middle;resizable=0;points=[];autosize=1;strokeColor=none;fillColor=none;" vertex="1" parent="KCWYJv6NmKcUc3A-nOqs-26">
          <mxGeometry y="82" width="160" height="30" as="geometry" />
        </mxCell>
        <mxCell id="KCWYJv6NmKcUc3A-nOqs-35" value="- gateNumber : number&lt;br/&gt;" style="text;html=1;align=left;verticalAlign=middle;resizable=0;points=[];autosize=1;strokeColor=none;fillColor=none;" vertex="1" parent="KCWYJv6NmKcUc3A-nOqs-26">
          <mxGeometry y="112" width="160" height="30" as="geometry" />
        </mxCell>
        <mxCell id="KCWYJv6NmKcUc3A-nOqs-38" value="FLIGHT" style="swimlane;fontStyle=2;align=center;verticalAlign=top;childLayout=stackLayout;horizontal=1;startSize=26;horizontalStack=0;resizeParent=1;resizeLast=0;collapsible=1;marginBottom=0;rounded=0;shadow=0;strokeWidth=1;" vertex="1" parent="WIyWlLk6GJQsqaUBKTNV-1">
          <mxGeometry x="-360" y="280" width="160" height="240" as="geometry">
            <mxRectangle x="230" y="140" width="160" height="26" as="alternateBounds" />
          </mxGeometry>
        </mxCell>
        <mxCell id="KCWYJv6NmKcUc3A-nOqs-39" value="- flightNumber: string&#xa;&#xa;- departureTime: string&#xa;&#xa;- arrivalTime: string&#xa;&#xa;- dateTime: string&#xa;&#xa;- meal: meals&#xa;" style="text;align=left;verticalAlign=top;spacingLeft=4;spacingRight=4;overflow=hidden;rotatable=0;points=[[0,0.5],[1,0.5]];portConstraint=eastwest;" vertex="1" parent="KCWYJv6NmKcUc3A-nOqs-38">
          <mxGeometry y="26" width="160" height="134" as="geometry" />
        </mxCell>
        <mxCell id="KCWYJv6NmKcUc3A-nOqs-44" value="" style="line;html=1;strokeWidth=1;align=left;verticalAlign=middle;spacingTop=-1;spacingLeft=3;spacingRight=3;rotatable=0;labelPosition=right;points=[];portConstraint=eastwest;" vertex="1" parent="KCWYJv6NmKcUc3A-nOqs-38">
          <mxGeometry y="160" width="160" height="8" as="geometry" />
        </mxCell>
        <mxCell id="KCWYJv6NmKcUc3A-nOqs-43" value="+ addPassanger(): " style="text;html=1;align=left;verticalAlign=middle;resizable=0;points=[];autosize=1;strokeColor=none;fillColor=none;" vertex="1" parent="KCWYJv6NmKcUc3A-nOqs-38">
          <mxGeometry y="168" width="160" height="30" as="geometry" />
        </mxCell>
        <mxCell id="KCWYJv6NmKcUc3A-nOqs-45" value="Employee" style="swimlane;fontStyle=2;align=center;verticalAlign=top;childLayout=stackLayout;horizontal=1;startSize=26;horizontalStack=0;resizeParent=1;resizeLast=0;collapsible=1;marginBottom=0;rounded=0;shadow=0;strokeWidth=1;" vertex="1" parent="WIyWlLk6GJQsqaUBKTNV-1">
          <mxGeometry x="200.00000000000006" y="400" width="160" height="280" as="geometry">
            <mxRectangle x="230" y="140" width="160" height="26" as="alternateBounds" />
          </mxGeometry>
        </mxCell>
        <mxCell id="KCWYJv6NmKcUc3A-nOqs-46" value="- personality : string&#xa;&#xa;-name: string&#xa;&#xa;- email: string&#xa;&#xa;- phoneNumber: number&#xa;&#xa;- address: string&#xa;&#xa;- gender: string&#xa;&#xa;- flight: Flight&#xa;&#xa;- skills: Skill&#xa;&#xa;- salary: number" style="text;align=left;verticalAlign=top;spacingLeft=4;spacingRight=4;overflow=hidden;rotatable=0;points=[[0,0.5],[1,0.5]];portConstraint=eastwest;" vertex="1" parent="KCWYJv6NmKcUc3A-nOqs-45">
          <mxGeometry y="26" width="160" height="254" as="geometry" />
        </mxCell>
        <mxCell id="KCWYJv6NmKcUc3A-nOqs-135" value="" style="endArrow=none;html=1;rounded=0;entryX=-0.024;entryY=0.872;entryDx=0;entryDy=0;entryPerimeter=0;" edge="1" parent="KCWYJv6NmKcUc3A-nOqs-45" target="KCWYJv6NmKcUc3A-nOqs-54">
          <mxGeometry width="50" height="50" relative="1" as="geometry">
            <mxPoint x="-120.00000000000006" y="198" as="sourcePoint" />
            <mxPoint x="239.99999999999994" as="targetPoint" />
            <Array as="points">
              <mxPoint x="-80.00000000000006" y="198" />
              <mxPoint x="-80.00000000000006" y="290" />
              <mxPoint x="159.99999999999994" y="290" />
              <mxPoint x="239.99999999999994" y="290" />
              <mxPoint x="239.99999999999994" y="150" />
              <mxPoint x="279.99999999999994" y="150" />
            </Array>
          </mxGeometry>
        </mxCell>
        <mxCell id="KCWYJv6NmKcUc3A-nOqs-49" value="Enum skills" style="swimlane;fontStyle=2;align=center;verticalAlign=top;childLayout=stackLayout;horizontal=1;startSize=26;horizontalStack=0;resizeParent=1;resizeLast=0;collapsible=1;marginBottom=0;rounded=0;shadow=0;strokeWidth=1;" vertex="1" parent="WIyWlLk6GJQsqaUBKTNV-1">
          <mxGeometry x="200.00000000000006" y="740" width="160" height="170" as="geometry">
            <mxRectangle x="230" y="140" width="160" height="26" as="alternateBounds" />
          </mxGeometry>
        </mxCell>
        <mxCell id="KCWYJv6NmKcUc3A-nOqs-163" value="" style="endArrow=none;html=1;rounded=0;entryX=0.673;entryY=-0.002;entryDx=0;entryDy=0;entryPerimeter=0;" edge="1" parent="KCWYJv6NmKcUc3A-nOqs-49" target="KCWYJv6NmKcUc3A-nOqs-99">
          <mxGeometry width="50" height="50" relative="1" as="geometry">
            <mxPoint x="-173.00000000000006" y="78" as="sourcePoint" />
            <mxPoint x="208.30999999999983" y="76.00200000000007" as="targetPoint" />
          </mxGeometry>
        </mxCell>
        <mxCell id="KCWYJv6NmKcUc3A-nOqs-50" value="- PILOT,&#xa;&#xa;- COPILOT,&#xa;&#xa;- FLIGHTATTENDANTS,&#xa;&#xa;- FLIGHTENGINEER,&#xa;&#xa;- CREW,&#xa;&#xa;- CHEF,&#xa;&#xa;- AIRPORTCONTROLLER" style="text;align=left;verticalAlign=top;spacingLeft=4;spacingRight=4;overflow=hidden;rotatable=0;points=[[0,0.5],[1,0.5]];portConstraint=eastwest;" vertex="1" parent="KCWYJv6NmKcUc3A-nOqs-49">
          <mxGeometry y="26" width="160" height="134" as="geometry" />
        </mxCell>
        <mxCell id="KCWYJv6NmKcUc3A-nOqs-53" value="Booking" style="swimlane;fontStyle=2;align=center;verticalAlign=top;childLayout=stackLayout;horizontal=1;startSize=26;horizontalStack=0;resizeParent=1;resizeLast=0;collapsible=1;marginBottom=0;rounded=0;shadow=0;strokeWidth=1;" vertex="1" parent="WIyWlLk6GJQsqaUBKTNV-1">
          <mxGeometry x="480" y="280" width="160" height="488" as="geometry">
            <mxRectangle x="230" y="140" width="160" height="26" as="alternateBounds" />
          </mxGeometry>
        </mxCell>
        <mxCell id="KCWYJv6NmKcUc3A-nOqs-54" value="- bookingID : number&#xa;&#xa;- amount: number&#xa;&#xa;- currency: string&#xa;&#xa;- dateTime: string&#xa;&#xa;- numberOfTicket: number&#xa;&#xa;- departureTime: string&#xa;&#xa;- referenceNumber: string&#xa;&#xa;- seats: Seat&#xa;&#xa;- trips: Trip&#xa;&#xa;- ticket: Tickets" style="text;align=left;verticalAlign=top;spacingLeft=4;spacingRight=4;overflow=hidden;rotatable=0;points=[[0,0.5],[1,0.5]];portConstraint=eastwest;" vertex="1" parent="KCWYJv6NmKcUc3A-nOqs-53">
          <mxGeometry y="26" width="160" height="284" as="geometry" />
        </mxCell>
        <mxCell id="KCWYJv6NmKcUc3A-nOqs-55" value="" style="line;html=1;strokeWidth=1;align=left;verticalAlign=middle;spacingTop=-1;spacingLeft=3;spacingRight=3;rotatable=0;labelPosition=right;points=[];portConstraint=eastwest;" vertex="1" parent="KCWYJv6NmKcUc3A-nOqs-53">
          <mxGeometry y="310" width="160" height="8" as="geometry" />
        </mxCell>
        <mxCell id="KCWYJv6NmKcUc3A-nOqs-63" value="+ getTickets(): &#xa;&#xa;Â + getMeals(): &#xa;&#xa;+ getTrip():Â &#xa;&#xa;Â + addPassaner(): &#xa;&#xa;Â + getFlight(): &#xa;&#xa;Â + getPassengerDetails():  " style="text;align=left;verticalAlign=top;spacingLeft=4;spacingRight=4;overflow=hidden;rotatable=0;points=[[0,0.5],[1,0.5]];portConstraint=eastwest;rounded=0;shadow=0;html=0;" vertex="1" parent="KCWYJv6NmKcUc3A-nOqs-53">
          <mxGeometry y="318" width="160" height="162" as="geometry" />
        </mxCell>
        <mxCell id="KCWYJv6NmKcUc3A-nOqs-65" value="PASSANGER" style="swimlane;fontStyle=2;align=center;verticalAlign=top;childLayout=stackLayout;horizontal=1;startSize=26;horizontalStack=0;resizeParent=1;resizeLast=0;collapsible=1;marginBottom=0;rounded=0;shadow=0;strokeWidth=1;" vertex="1" parent="WIyWlLk6GJQsqaUBKTNV-1">
          <mxGeometry x="-80.71" y="400" width="160" height="416" as="geometry">
            <mxRectangle x="230" y="140" width="160" height="26" as="alternateBounds" />
          </mxGeometry>
        </mxCell>
        <mxCell id="KCWYJv6NmKcUc3A-nOqs-66" value="- id: string&#xa;&#xa;- passportNumber: number&#xa;&#xa;- birthdate: string&#xa;&#xa;- dateTime: string&#xa;&#xa;- name: string&#xa;&#xa;- email: string&#xa;&#xa;- phoneNumber: number&#xa;&#xa;- address: string&#xa;&#xa;- gender: genders&#xa;&#xa;- baggage: string&#xa;&#xa;- meal: meals" style="text;align=left;verticalAlign=top;spacingLeft=4;spacingRight=4;overflow=hidden;rotatable=0;points=[[0,0.5],[1,0.5]];portConstraint=eastwest;" vertex="1" parent="KCWYJv6NmKcUc3A-nOqs-65">
          <mxGeometry y="26" width="160" height="314" as="geometry" />
        </mxCell>
        <mxCell id="KCWYJv6NmKcUc3A-nOqs-71" value="" style="line;html=1;strokeWidth=1;align=left;verticalAlign=middle;spacingTop=-1;spacingLeft=3;spacingRight=3;rotatable=0;labelPosition=right;points=[];portConstraint=eastwest;" vertex="1" parent="KCWYJv6NmKcUc3A-nOqs-65">
          <mxGeometry y="340" width="160" height="8" as="geometry" />
        </mxCell>
        <mxCell id="KCWYJv6NmKcUc3A-nOqs-72" value="+ getID(): " style="text;html=1;align=left;verticalAlign=middle;resizable=0;points=[];autosize=1;strokeColor=none;fillColor=none;" vertex="1" parent="KCWYJv6NmKcUc3A-nOqs-65">
          <mxGeometry y="348" width="160" height="30" as="geometry" />
        </mxCell>
        <mxCell id="KCWYJv6NmKcUc3A-nOqs-70" value="+ getID(): " style="text;html=1;align=left;verticalAlign=middle;resizable=0;points=[];autosize=1;strokeColor=none;fillColor=none;" vertex="1" parent="KCWYJv6NmKcUc3A-nOqs-65">
          <mxGeometry y="378" width="160" height="30" as="geometry" />
        </mxCell>
        <mxCell id="KCWYJv6NmKcUc3A-nOqs-73" value="Enum ticket" style="swimlane;fontStyle=2;align=center;verticalAlign=top;childLayout=stackLayout;horizontal=1;startSize=26;horizontalStack=0;resizeParent=1;resizeLast=0;collapsible=1;marginBottom=0;rounded=0;shadow=0;strokeWidth=1;" vertex="1" parent="WIyWlLk6GJQsqaUBKTNV-1">
          <mxGeometry x="480" y="840" width="160" height="120" as="geometry">
            <mxRectangle x="230" y="140" width="160" height="26" as="alternateBounds" />
          </mxGeometry>
        </mxCell>
        <mxCell id="KCWYJv6NmKcUc3A-nOqs-74" value="- SINGLETICKET,&#xa;&#xa;- RETURNTICKETÂ " style="text;align=left;verticalAlign=top;spacingLeft=4;spacingRight=4;overflow=hidden;rotatable=0;points=[[0,0.5],[1,0.5]];portConstraint=eastwest;" vertex="1" parent="KCWYJv6NmKcUc3A-nOqs-73">
          <mxGeometry y="26" width="160" height="94" as="geometry" />
        </mxCell>
        <mxCell id="KCWYJv6NmKcUc3A-nOqs-75" value="GATE" style="swimlane;fontStyle=2;align=center;verticalAlign=top;childLayout=stackLayout;horizontal=1;startSize=26;horizontalStack=0;resizeParent=1;resizeLast=0;collapsible=1;marginBottom=0;rounded=0;shadow=0;strokeWidth=1;" vertex="1" parent="WIyWlLk6GJQsqaUBKTNV-1">
          <mxGeometry x="-360" y="580" width="160" height="160" as="geometry">
            <mxRectangle x="230" y="140" width="160" height="26" as="alternateBounds" />
          </mxGeometry>
        </mxCell>
        <mxCell id="KCWYJv6NmKcUc3A-nOqs-77" value="- number: string" style="text;align=left;verticalAlign=top;spacingLeft=4;spacingRight=4;overflow=hidden;rotatable=0;points=[[0,0.5],[1,0.5]];portConstraint=eastwest;" vertex="1" parent="KCWYJv6NmKcUc3A-nOqs-75">
          <mxGeometry y="26" width="160" height="34" as="geometry" />
        </mxCell>
        <mxCell id="KCWYJv6NmKcUc3A-nOqs-78" value="" style="line;html=1;strokeWidth=1;align=left;verticalAlign=middle;spacingTop=-1;spacingLeft=3;spacingRight=3;rotatable=0;labelPosition=right;points=[];portConstraint=eastwest;" vertex="1" parent="KCWYJv6NmKcUc3A-nOqs-75">
          <mxGeometry y="60" width="160" height="8" as="geometry" />
        </mxCell>
        <mxCell id="KCWYJv6NmKcUc3A-nOqs-76" value="+ assignFlight(): &#xa;&#xa;Â + removeFlight(): " style="text;align=left;verticalAlign=top;spacingLeft=4;spacingRight=4;overflow=hidden;rotatable=0;points=[[0,0.5],[1,0.5]];portConstraint=eastwest;" vertex="1" parent="KCWYJv6NmKcUc3A-nOqs-75">
          <mxGeometry y="68" width="160" height="52" as="geometry" />
        </mxCell>
        <mxCell id="KCWYJv6NmKcUc3A-nOqs-79" value="Enum meals" style="swimlane;fontStyle=2;align=center;verticalAlign=top;childLayout=stackLayout;horizontal=1;startSize=26;horizontalStack=0;resizeParent=1;resizeLast=0;collapsible=1;marginBottom=0;rounded=0;shadow=0;strokeWidth=1;" vertex="1" parent="WIyWlLk6GJQsqaUBKTNV-1">
          <mxGeometry x="-640" y="420" width="160" height="200" as="geometry">
            <mxRectangle x="230" y="140" width="160" height="26" as="alternateBounds" />
          </mxGeometry>
        </mxCell>
        <mxCell id="KCWYJv6NmKcUc3A-nOqs-80" value="- VEGETARIAN,&#xa;&#xa;- VEGAN,&#xa;&#xa;- DIARYFREE&#xa;,&#xa;- HALAL,&#xa;&#xa;- KOSHER,&#xa;&#xa;- FORTH" style="text;align=left;verticalAlign=top;spacingLeft=4;spacingRight=4;overflow=hidden;rotatable=0;points=[[0,0.5],[1,0.5]];portConstraint=eastwest;" vertex="1" parent="KCWYJv6NmKcUc3A-nOqs-79">
          <mxGeometry y="26" width="160" height="174" as="geometry" />
        </mxCell>
        <mxCell id="KCWYJv6NmKcUc3A-nOqs-85" value="" style="endArrow=none;html=1;rounded=0;entryX=0;entryY=0.5;entryDx=0;entryDy=0;exitX=1.009;exitY=0.169;exitDx=0;exitDy=0;exitPerimeter=0;" edge="1" parent="WIyWlLk6GJQsqaUBKTNV-1" source="KCWYJv6NmKcUc3A-nOqs-66" target="KCWYJv6NmKcUc3A-nOqs-3">
          <mxGeometry width="50" height="50" relative="1" as="geometry">
            <mxPoint x="120" y="640" as="sourcePoint" />
            <mxPoint x="190" y="320" as="targetPoint" />
            <Array as="points">
              <mxPoint x="120" y="480" />
              <mxPoint x="120" y="301" />
            </Array>
          </mxGeometry>
        </mxCell>
        <mxCell id="KCWYJv6NmKcUc3A-nOqs-86" value="" style="endArrow=none;html=1;rounded=0;entryX=0.495;entryY=1.248;entryDx=0;entryDy=0;entryPerimeter=0;" edge="1" parent="WIyWlLk6GJQsqaUBKTNV-1" source="KCWYJv6NmKcUc3A-nOqs-45" target="KCWYJv6NmKcUc3A-nOqs-87">
          <mxGeometry width="50" height="50" relative="1" as="geometry">
            <mxPoint x="477" y="310" as="sourcePoint" />
            <mxPoint x="390" y="320" as="targetPoint" />
          </mxGeometry>
        </mxCell>
        <mxCell id="KCWYJv6NmKcUc3A-nOqs-89" value="" style="endArrow=none;html=1;rounded=0;entryX=1;entryY=0.5;entryDx=0;entryDy=0;exitX=0.009;exitY=0.077;exitDx=0;exitDy=0;exitPerimeter=0;" edge="1" parent="WIyWlLk6GJQsqaUBKTNV-1" source="zkfFHV4jXpPFQw0GAbJ--19" target="zkfFHV4jXpPFQw0GAbJ--3">
          <mxGeometry width="50" height="50" relative="1" as="geometry">
            <mxPoint x="489" y="355" as="sourcePoint" />
            <mxPoint x="377" y="278" as="targetPoint" />
          </mxGeometry>
        </mxCell>
        <mxCell id="KCWYJv6NmKcUc3A-nOqs-92" value="&lt;font style=&quot;font-size: 33px;&quot;&gt;*&lt;/font&gt;" style="text;html=1;align=center;verticalAlign=middle;resizable=0;points=[];autosize=1;strokeColor=none;fillColor=none;" vertex="1" parent="WIyWlLk6GJQsqaUBKTNV-1">
          <mxGeometry x="440" y="70" width="40" height="50" as="geometry" />
        </mxCell>
        <mxCell id="KCWYJv6NmKcUc3A-nOqs-94" value="" style="endArrow=none;html=1;rounded=0;entryX=0;entryY=0.5;entryDx=0;entryDy=0;exitX=1.006;exitY=0.075;exitDx=0;exitDy=0;exitPerimeter=0;" edge="1" parent="WIyWlLk6GJQsqaUBKTNV-1" source="KCWYJv6NmKcUc3A-nOqs-66">
          <mxGeometry width="50" height="50" relative="1" as="geometry">
            <mxPoint x="80.29" y="450" as="sourcePoint" />
            <mxPoint x="79.29" y="445" as="targetPoint" />
          </mxGeometry>
        </mxCell>
        <mxCell id="KCWYJv6NmKcUc3A-nOqs-93" value="&lt;font style=&quot;font-size: 33px;&quot;&gt;*&lt;/font&gt;" style="text;html=1;align=center;verticalAlign=middle;resizable=0;points=[];autosize=1;strokeColor=none;fillColor=none;rotation=-180;" vertex="1" parent="WIyWlLk6GJQsqaUBKTNV-1">
          <mxGeometry x="79.29" y="436" width="40" height="50" as="geometry" />
        </mxCell>
        <mxCell id="KCWYJv6NmKcUc3A-nOqs-95" value="" style="endArrow=none;html=1;rounded=0;entryX=0.5;entryY=1;entryDx=0;entryDy=0;exitX=0.5;exitY=0;exitDx=0;exitDy=0;" edge="1" parent="WIyWlLk6GJQsqaUBKTNV-1" source="KCWYJv6NmKcUc3A-nOqs-65" target="KCWYJv6NmKcUc3A-nOqs-13">
          <mxGeometry width="50" height="50" relative="1" as="geometry">
            <mxPoint x="-110" y="417" as="sourcePoint" />
            <mxPoint x="10" y="280" as="targetPoint" />
          </mxGeometry>
        </mxCell>
        <mxCell id="KCWYJv6NmKcUc3A-nOqs-96" value="&lt;font style=&quot;font-size: 33px;&quot;&gt;*&lt;/font&gt;" style="text;html=1;align=center;verticalAlign=middle;resizable=0;points=[];autosize=1;strokeColor=none;fillColor=none;rotation=-180;" vertex="1" parent="WIyWlLk6GJQsqaUBKTNV-1">
          <mxGeometry y="350" width="40" height="50" as="geometry" />
        </mxCell>
        <mxCell id="KCWYJv6NmKcUc3A-nOqs-97" value="PERSON" style="swimlane;fontStyle=2;align=center;verticalAlign=top;childLayout=stackLayout;horizontal=1;startSize=26;horizontalStack=0;resizeParent=1;resizeLast=0;collapsible=1;marginBottom=0;rounded=0;shadow=0;strokeWidth=1;" vertex="1" parent="WIyWlLk6GJQsqaUBKTNV-1">
          <mxGeometry x="-360" y="840" width="160" height="200" as="geometry">
            <mxRectangle x="230" y="140" width="160" height="26" as="alternateBounds" />
          </mxGeometry>
        </mxCell>
        <mxCell id="KCWYJv6NmKcUc3A-nOqs-98" value="- name: string&#xa;&#xa;- email: string&#xa;&#xa;- phoneNumber: number&#xa;&#xa;- address: string&#xa;&#xa;- gender: genders" style="text;align=left;verticalAlign=top;spacingLeft=4;spacingRight=4;overflow=hidden;rotatable=0;points=[[0,0.5],[1,0.5]];portConstraint=eastwest;" vertex="1" parent="KCWYJv6NmKcUc3A-nOqs-97">
          <mxGeometry y="26" width="160" height="174" as="geometry" />
        </mxCell>
        <mxCell id="KCWYJv6NmKcUc3A-nOqs-99" value="Enum genders" style="swimlane;fontStyle=2;align=center;verticalAlign=top;childLayout=stackLayout;horizontal=1;startSize=26;horizontalStack=0;resizeParent=1;resizeLast=0;collapsible=1;marginBottom=0;rounded=0;shadow=0;strokeWidth=1;" vertex="1" parent="WIyWlLk6GJQsqaUBKTNV-1">
          <mxGeometry x="-80.70999999999998" y="960" width="160" height="120" as="geometry">
            <mxRectangle x="230" y="140" width="160" height="26" as="alternateBounds" />
          </mxGeometry>
        </mxCell>
        <mxCell id="KCWYJv6NmKcUc3A-nOqs-100" value="- MALE,&#xa;&#xa;&#xa;- FEMALEÂ " style="text;align=left;verticalAlign=top;spacingLeft=4;spacingRight=4;overflow=hidden;rotatable=0;points=[[0,0.5],[1,0.5]];portConstraint=eastwest;" vertex="1" parent="KCWYJv6NmKcUc3A-nOqs-99">
          <mxGeometry y="26" width="160" height="94" as="geometry" />
        </mxCell>
        <mxCell id="KCWYJv6NmKcUc3A-nOqs-101" value="ROUTE" style="swimlane;fontStyle=2;align=center;verticalAlign=top;childLayout=stackLayout;horizontal=1;startSize=26;horizontalStack=0;resizeParent=1;resizeLast=0;collapsible=1;marginBottom=0;rounded=0;shadow=0;strokeWidth=1;" vertex="1" parent="WIyWlLk6GJQsqaUBKTNV-1">
          <mxGeometry x="-640" y="275" width="160" height="80" as="geometry">
            <mxRectangle x="230" y="140" width="160" height="26" as="alternateBounds" />
          </mxGeometry>
        </mxCell>
        <mxCell id="KCWYJv6NmKcUc3A-nOqs-102" value="- Destination: string" style="text;align=left;verticalAlign=top;spacingLeft=4;spacingRight=4;overflow=hidden;rotatable=0;points=[[0,0.5],[1,0.5]];portConstraint=eastwest;" vertex="1" parent="KCWYJv6NmKcUc3A-nOqs-101">
          <mxGeometry y="26" width="160" height="54" as="geometry" />
        </mxCell>
        <mxCell id="KCWYJv6NmKcUc3A-nOqs-103" value="Enum seattypes" style="swimlane;fontStyle=2;align=center;verticalAlign=top;childLayout=stackLayout;horizontal=1;startSize=26;horizontalStack=0;resizeParent=1;resizeLast=0;collapsible=1;marginBottom=0;rounded=0;shadow=0;strokeWidth=1;" vertex="1" parent="WIyWlLk6GJQsqaUBKTNV-1">
          <mxGeometry x="-640" y="680" width="160" height="280" as="geometry">
            <mxRectangle x="230" y="140" width="160" height="26" as="alternateBounds" />
          </mxGeometry>
        </mxCell>
        <mxCell id="KCWYJv6NmKcUc3A-nOqs-104" value="- ECONOMY,&#xa;&#xa;- PREMIUMECONOMY,&#xa;&#xa;- BUSINESS,&#xa;&#xa;- FIRST,&#xa;&#xa;- BULKHEAD,&#xa;&#xa;- EXITROW,&#xa;&#xa;- WINDOW,&#xa;&#xa;- AISLE" style="text;align=left;verticalAlign=top;spacingLeft=4;spacingRight=4;overflow=hidden;rotatable=0;points=[[0,0.5],[1,0.5]];portConstraint=eastwest;" vertex="1" parent="KCWYJv6NmKcUc3A-nOqs-103">
          <mxGeometry y="26" width="160" height="254" as="geometry" />
        </mxCell>
        <mxCell id="KCWYJv6NmKcUc3A-nOqs-111" value="SEAT" style="swimlane;fontStyle=2;align=center;verticalAlign=top;childLayout=stackLayout;horizontal=1;startSize=26;horizontalStack=0;resizeParent=1;resizeLast=0;collapsible=1;marginBottom=0;rounded=0;shadow=0;strokeWidth=1;" vertex="1" parent="WIyWlLk6GJQsqaUBKTNV-1">
          <mxGeometry x="477.33000000000004" y="1040" width="160" height="100" as="geometry">
            <mxRectangle x="230" y="140" width="160" height="26" as="alternateBounds" />
          </mxGeometry>
        </mxCell>
        <mxCell id="KCWYJv6NmKcUc3A-nOqs-112" value="- seatNumber: string,&#xa;&#xa;- seatTypes: seattypes" style="text;align=left;verticalAlign=top;spacingLeft=4;spacingRight=4;overflow=hidden;rotatable=0;points=[[0,0.5],[1,0.5]];portConstraint=eastwest;" vertex="1" parent="KCWYJv6NmKcUc3A-nOqs-111">
          <mxGeometry y="26" width="160" height="74" as="geometry" />
        </mxCell>
        <mxCell id="KCWYJv6NmKcUc3A-nOqs-113" value="Trip" style="swimlane;fontStyle=2;align=center;verticalAlign=top;childLayout=stackLayout;horizontal=1;startSize=26;horizontalStack=0;resizeParent=1;resizeLast=0;collapsible=1;marginBottom=0;rounded=0;shadow=0;strokeWidth=1;" vertex="1" parent="WIyWlLk6GJQsqaUBKTNV-1">
          <mxGeometry x="200" y="1000" width="160" height="100" as="geometry">
            <mxRectangle x="230" y="140" width="160" height="26" as="alternateBounds" />
          </mxGeometry>
        </mxCell>
        <mxCell id="KCWYJv6NmKcUc3A-nOqs-114" value="- destination: string,&#xa;&#xa;Â - duration: string" style="text;align=left;verticalAlign=top;spacingLeft=4;spacingRight=4;overflow=hidden;rotatable=0;points=[[0,0.5],[1,0.5]];portConstraint=eastwest;" vertex="1" parent="KCWYJv6NmKcUc3A-nOqs-113">
          <mxGeometry y="26" width="160" height="74" as="geometry" />
        </mxCell>
        <mxCell id="KCWYJv6NmKcUc3A-nOqs-116" value="" style="endArrow=none;html=1;rounded=0;entryX=0.75;entryY=1;entryDx=0;entryDy=0;" edge="1" parent="WIyWlLk6GJQsqaUBKTNV-1" target="KCWYJv6NmKcUc3A-nOqs-13">
          <mxGeometry width="50" height="50" relative="1" as="geometry">
            <mxPoint x="480" y="370" as="sourcePoint" />
            <mxPoint x="10" y="290" as="targetPoint" />
            <Array as="points">
              <mxPoint x="230" y="370" />
              <mxPoint x="40" y="370" />
            </Array>
          </mxGeometry>
        </mxCell>
        <mxCell id="KCWYJv6NmKcUc3A-nOqs-117" value="&lt;font style=&quot;font-size: 33px;&quot;&gt;*&lt;/font&gt;" style="text;html=1;align=center;verticalAlign=middle;resizable=0;points=[];autosize=1;strokeColor=none;fillColor=none;rotation=-180;" vertex="1" parent="WIyWlLk6GJQsqaUBKTNV-1">
          <mxGeometry x="450" y="328" width="40" height="50" as="geometry" />
        </mxCell>
        <mxCell id="KCWYJv6NmKcUc3A-nOqs-121" value="" style="endArrow=none;html=1;rounded=0;exitX=0.006;exitY=0.2;exitDx=0;exitDy=0;exitPerimeter=0;entryX=0.883;entryY=0.982;entryDx=0;entryDy=0;entryPerimeter=0;" edge="1" parent="WIyWlLk6GJQsqaUBKTNV-1" source="KCWYJv6NmKcUc3A-nOqs-122" target="KCWYJv6NmKcUc3A-nOqs-131">
          <mxGeometry width="50" height="50" relative="1" as="geometry">
            <mxPoint x="-90" y="440" as="sourcePoint" />
            <mxPoint x="-210" y="440" as="targetPoint" />
          </mxGeometry>
        </mxCell>
        <mxCell id="KCWYJv6NmKcUc3A-nOqs-122" value="&lt;font style=&quot;font-size: 33px;&quot;&gt;*&lt;/font&gt;" style="text;html=1;align=center;verticalAlign=middle;resizable=0;points=[];autosize=1;strokeColor=none;fillColor=none;rotation=-180;" vertex="1" parent="WIyWlLk6GJQsqaUBKTNV-1">
          <mxGeometry x="-120.00000000000001" y="400" width="40" height="50" as="geometry" />
        </mxCell>
        <mxCell id="KCWYJv6NmKcUc3A-nOqs-91" value="&lt;font style=&quot;font-size: 33px;&quot;&gt;*&lt;/font&gt;" style="text;html=1;align=center;verticalAlign=middle;resizable=0;points=[];autosize=1;strokeColor=none;fillColor=none;rotation=-180;" vertex="1" parent="WIyWlLk6GJQsqaUBKTNV-1">
          <mxGeometry x="271" y="356" width="40" height="50" as="geometry" />
        </mxCell>
        <mxCell id="KCWYJv6NmKcUc3A-nOqs-127" value="" style="endArrow=none;html=1;rounded=0;entryX=-0.018;entryY=0.731;entryDx=0;entryDy=0;entryPerimeter=0;exitX=0.997;exitY=0.931;exitDx=0;exitDy=0;exitPerimeter=0;" edge="1" parent="WIyWlLk6GJQsqaUBKTNV-1">
          <mxGeometry width="50" height="50" relative="1" as="geometry">
            <mxPoint x="78.80999999999995" y="706.3340000000001" as="sourcePoint" />
            <mxPoint x="477.1199999999999" y="704.422" as="targetPoint" />
          </mxGeometry>
        </mxCell>
        <mxCell id="KCWYJv6NmKcUc3A-nOqs-128" value="&lt;font style=&quot;font-size: 33px;&quot;&gt;*&lt;/font&gt;" style="text;html=1;align=center;verticalAlign=middle;resizable=0;points=[];autosize=1;strokeColor=none;fillColor=none;rotation=-180;" vertex="1" parent="WIyWlLk6GJQsqaUBKTNV-1">
          <mxGeometry x="80" y="664" width="40" height="50" as="geometry" />
        </mxCell>
        <mxCell id="KCWYJv6NmKcUc3A-nOqs-130" value="" style="endArrow=none;html=1;rounded=0;entryX=-0.001;entryY=0.759;entryDx=0;entryDy=0;entryPerimeter=0;exitX=1.004;exitY=1.067;exitDx=0;exitDy=0;exitPerimeter=0;" edge="1" parent="WIyWlLk6GJQsqaUBKTNV-1" source="KCWYJv6NmKcUc3A-nOqs-43" target="KCWYJv6NmKcUc3A-nOqs-63">
          <mxGeometry width="50" height="50" relative="1" as="geometry">
            <mxPoint x="-160" y="400" as="sourcePoint" />
            <mxPoint x="487" y="726" as="targetPoint" />
            <Array as="points">
              <mxPoint x="-160" y="480" />
              <mxPoint x="-160" y="830" />
              <mxPoint x="120" y="830" />
              <mxPoint x="120" y="720" />
            </Array>
          </mxGeometry>
        </mxCell>
        <mxCell id="KCWYJv6NmKcUc3A-nOqs-131" value="&lt;font style=&quot;font-size: 33px;&quot;&gt;*&lt;/font&gt;" style="text;html=1;align=center;verticalAlign=middle;resizable=0;points=[];autosize=1;strokeColor=none;fillColor=none;rotation=-180;" vertex="1" parent="WIyWlLk6GJQsqaUBKTNV-1">
          <mxGeometry x="-203" y="437" width="40" height="50" as="geometry" />
        </mxCell>
        <mxCell id="KCWYJv6NmKcUc3A-nOqs-134" value="&lt;font style=&quot;font-size: 33px;&quot;&gt;*&lt;/font&gt;" style="text;html=1;align=center;verticalAlign=middle;resizable=0;points=[];autosize=1;strokeColor=none;fillColor=none;rotation=-180;" vertex="1" parent="WIyWlLk6GJQsqaUBKTNV-1">
          <mxGeometry x="445.33" y="505" width="40" height="50" as="geometry" />
        </mxCell>
        <mxCell id="KCWYJv6NmKcUc3A-nOqs-136" value="" style="endArrow=none;html=1;rounded=0;entryX=0.5;entryY=1;entryDx=0;entryDy=0;exitX=0.999;exitY=0.302;exitDx=0;exitDy=0;exitPerimeter=0;" edge="1" parent="WIyWlLk6GJQsqaUBKTNV-1" source="KCWYJv6NmKcUc3A-nOqs-102" target="zkfFHV4jXpPFQw0GAbJ--17">
          <mxGeometry width="50" height="50" relative="1" as="geometry">
            <mxPoint x="-440" y="360" as="sourcePoint" />
            <mxPoint x="588.31" y="230.002" as="targetPoint" />
            <Array as="points">
              <mxPoint x="-440" y="320" />
              <mxPoint x="-440" y="260" />
              <mxPoint x="-160" y="260" />
              <mxPoint x="-160" y="340" />
              <mxPoint x="130" y="340" />
              <mxPoint x="440" y="340" />
              <mxPoint x="440" y="240" />
              <mxPoint x="557" y="240" />
            </Array>
          </mxGeometry>
        </mxCell>
        <mxCell id="KCWYJv6NmKcUc3A-nOqs-137" value="&lt;font style=&quot;font-size: 33px;&quot;&gt;*&lt;/font&gt;" style="text;html=1;align=center;verticalAlign=middle;resizable=0;points=[];autosize=1;strokeColor=none;fillColor=none;rotation=-180;" vertex="1" parent="WIyWlLk6GJQsqaUBKTNV-1">
          <mxGeometry x="-486" y="275" width="40" height="50" as="geometry" />
        </mxCell>
        <mxCell id="KCWYJv6NmKcUc3A-nOqs-138" value="" style="endArrow=none;html=1;rounded=0;entryX=0;entryY=0.5;entryDx=0;entryDy=0;exitX=0.995;exitY=0.957;exitDx=0;exitDy=0;exitPerimeter=0;" edge="1" parent="WIyWlLk6GJQsqaUBKTNV-1" source="KCWYJv6NmKcUc3A-nOqs-77" target="KCWYJv6NmKcUc3A-nOqs-16">
          <mxGeometry width="50" height="50" relative="1" as="geometry">
            <mxPoint x="-130" y="700" as="sourcePoint" />
            <mxPoint x="-129" y="120" as="targetPoint" />
            <Array as="points">
              <mxPoint x="-130" y="640" />
              <mxPoint x="-130" y="113" />
            </Array>
          </mxGeometry>
        </mxCell>
        <mxCell id="KCWYJv6NmKcUc3A-nOqs-139" value="&lt;font style=&quot;font-size: 33px;&quot;&gt;*&lt;/font&gt;" style="text;html=1;align=center;verticalAlign=middle;resizable=0;points=[];autosize=1;strokeColor=none;fillColor=none;rotation=-180;" vertex="1" parent="WIyWlLk6GJQsqaUBKTNV-1">
          <mxGeometry x="-205" y="593" width="40" height="50" as="geometry" />
        </mxCell>
        <mxCell id="KCWYJv6NmKcUc3A-nOqs-142" value="" style="endArrow=none;html=1;rounded=0;entryX=0.25;entryY=1;entryDx=0;entryDy=0;" edge="1" parent="WIyWlLk6GJQsqaUBKTNV-1" target="KCWYJv6NmKcUc3A-nOqs-53">
          <mxGeometry width="50" height="50" relative="1" as="geometry">
            <mxPoint x="360" y="1070" as="sourcePoint" />
            <mxPoint x="652" y="570" as="targetPoint" />
            <Array as="points">
              <mxPoint x="420" y="1070" />
              <mxPoint x="420" y="940" />
              <mxPoint x="420" y="810" />
              <mxPoint x="520" y="810" />
            </Array>
          </mxGeometry>
        </mxCell>
        <mxCell id="KCWYJv6NmKcUc3A-nOqs-143" value="&lt;font style=&quot;font-size: 33px;&quot;&gt;*&lt;/font&gt;" style="text;html=1;align=center;verticalAlign=middle;resizable=0;points=[];autosize=1;strokeColor=none;fillColor=none;rotation=-180;" vertex="1" parent="WIyWlLk6GJQsqaUBKTNV-1">
          <mxGeometry x="360" y="1023" width="40" height="50" as="geometry" />
        </mxCell>
        <mxCell id="KCWYJv6NmKcUc3A-nOqs-146" value="" style="endArrow=classic;html=1;rounded=0;exitX=1.03;exitY=0.258;exitDx=0;exitDy=0;exitPerimeter=0;" edge="1" parent="WIyWlLk6GJQsqaUBKTNV-1">
          <mxGeometry width="50" height="50" relative="1" as="geometry">
            <mxPoint x="642.33" y="719" as="sourcePoint" />
            <mxPoint x="640" y="890" as="targetPoint" />
            <Array as="points">
              <mxPoint x="680" y="719" />
              <mxPoint x="680" y="820" />
              <mxPoint x="680" y="890" />
            </Array>
          </mxGeometry>
        </mxCell>
        <mxCell id="KCWYJv6NmKcUc3A-nOqs-147" value="" style="endArrow=none;html=1;rounded=0;entryX=1.039;entryY=0.178;entryDx=0;entryDy=0;entryPerimeter=0;exitX=0.997;exitY=0.931;exitDx=0;exitDy=0;exitPerimeter=0;" edge="1" parent="WIyWlLk6GJQsqaUBKTNV-1" target="KCWYJv6NmKcUc3A-nOqs-112">
          <mxGeometry width="50" height="50" relative="1" as="geometry">
            <mxPoint x="640" y="618.9540000000001" as="sourcePoint" />
            <mxPoint x="1038.31" y="617.042" as="targetPoint" />
            <Array as="points">
              <mxPoint x="720" y="617" />
              <mxPoint x="720" y="1080" />
            </Array>
          </mxGeometry>
        </mxCell>
        <mxCell id="KCWYJv6NmKcUc3A-nOqs-148" value="&lt;font style=&quot;font-size: 33px;&quot;&gt;*&lt;/font&gt;" style="text;html=1;align=center;verticalAlign=middle;resizable=0;points=[];autosize=1;strokeColor=none;fillColor=none;rotation=-180;" vertex="1" parent="WIyWlLk6GJQsqaUBKTNV-1">
          <mxGeometry x="640" y="1031" width="40" height="50" as="geometry" />
        </mxCell>
        <mxCell id="KCWYJv6NmKcUc3A-nOqs-149" value="" style="endArrow=classic;html=1;rounded=0;entryX=0.5;entryY=0;entryDx=0;entryDy=0;" edge="1" parent="WIyWlLk6GJQsqaUBKTNV-1" target="KCWYJv6NmKcUc3A-nOqs-49">
          <mxGeometry width="50" height="50" relative="1" as="geometry">
            <mxPoint x="280" y="680" as="sourcePoint" />
            <mxPoint x="300" y="740" as="targetPoint" />
          </mxGeometry>
        </mxCell>
        <mxCell id="KCWYJv6NmKcUc3A-nOqs-150" value="" style="endArrow=none;html=1;rounded=0;entryX=-0.02;entryY=0.362;entryDx=0;entryDy=0;entryPerimeter=0;exitX=1.012;exitY=0.298;exitDx=0;exitDy=0;exitPerimeter=0;" edge="1" parent="WIyWlLk6GJQsqaUBKTNV-1" source="KCWYJv6NmKcUc3A-nOqs-98" target="KCWYJv6NmKcUc3A-nOqs-46">
          <mxGeometry width="50" height="50" relative="1" as="geometry">
            <mxPoint x="160" y="960" as="sourcePoint" />
            <mxPoint x="487.1199999999999" y="714.422" as="targetPoint" />
            <Array as="points">
              <mxPoint x="160" y="920" />
              <mxPoint x="160" y="518" />
            </Array>
          </mxGeometry>
        </mxCell>
        <mxCell id="KCWYJv6NmKcUc3A-nOqs-151" value="&lt;font style=&quot;font-size: 33px;&quot;&gt;*&lt;/font&gt;" style="text;html=1;align=center;verticalAlign=middle;resizable=0;points=[];autosize=1;strokeColor=none;fillColor=none;rotation=-180;" vertex="1" parent="WIyWlLk6GJQsqaUBKTNV-1">
          <mxGeometry x="-205" y="873" width="40" height="50" as="geometry" />
        </mxCell>
        <mxCell id="KCWYJv6NmKcUc3A-nOqs-154" value="" style="endArrow=none;html=1;rounded=0;" edge="1" parent="WIyWlLk6GJQsqaUBKTNV-1">
          <mxGeometry width="50" height="50" relative="1" as="geometry">
            <mxPoint x="-360" y="437" as="sourcePoint" />
            <mxPoint x="-480" y="437" as="targetPoint" />
          </mxGeometry>
        </mxCell>
        <mxCell id="KCWYJv6NmKcUc3A-nOqs-155" value="&lt;font style=&quot;font-size: 33px;&quot;&gt;*&lt;/font&gt;" style="text;html=1;align=center;verticalAlign=middle;resizable=0;points=[];autosize=1;strokeColor=none;fillColor=none;rotation=-180;" vertex="1" parent="WIyWlLk6GJQsqaUBKTNV-1">
          <mxGeometry x="-485" y="394" width="40" height="50" as="geometry" />
        </mxCell>
        <mxCell id="KCWYJv6NmKcUc3A-nOqs-156" value="" style="endArrow=none;html=1;rounded=0;entryX=-0.018;entryY=0.731;entryDx=0;entryDy=0;entryPerimeter=0;" edge="1" parent="WIyWlLk6GJQsqaUBKTNV-1">
          <mxGeometry width="50" height="50" relative="1" as="geometry">
            <mxPoint x="-480" y="550" as="sourcePoint" />
            <mxPoint x="-80.00000000000011" y="780.0020000000001" as="targetPoint" />
            <Array as="points">
              <mxPoint x="-440" y="550" />
              <mxPoint x="-440" y="780" />
            </Array>
          </mxGeometry>
        </mxCell>
        <mxCell id="KCWYJv6NmKcUc3A-nOqs-157" value="&lt;font style=&quot;font-size: 33px;&quot;&gt;*&lt;/font&gt;" style="text;html=1;align=center;verticalAlign=middle;resizable=0;points=[];autosize=1;strokeColor=none;fillColor=none;rotation=-180;" vertex="1" parent="WIyWlLk6GJQsqaUBKTNV-1">
          <mxGeometry x="-485" y="506" width="40" height="50" as="geometry" />
        </mxCell>
        <mxCell id="KCWYJv6NmKcUc3A-nOqs-158" value="" style="endArrow=none;html=1;rounded=0;exitX=0.997;exitY=0.931;exitDx=0;exitDy=0;exitPerimeter=0;" edge="1" parent="WIyWlLk6GJQsqaUBKTNV-1">
          <mxGeometry width="50" height="50" relative="1" as="geometry">
            <mxPoint x="-10.000000000000057" y="817.9140000000001" as="sourcePoint" />
            <mxPoint x="-200" y="870" as="targetPoint" />
            <Array as="points">
              <mxPoint x="-10" y="870" />
            </Array>
          </mxGeometry>
        </mxCell>
        <mxCell id="KCWYJv6NmKcUc3A-nOqs-159" value="&lt;font style=&quot;font-size: 33px;&quot;&gt;*&lt;/font&gt;" style="text;html=1;align=center;verticalAlign=middle;resizable=0;points=[];autosize=1;strokeColor=none;fillColor=none;rotation=-180;" vertex="1" parent="WIyWlLk6GJQsqaUBKTNV-1">
          <mxGeometry x="-207" y="826" width="40" height="50" as="geometry" />
        </mxCell>
        <mxCell id="KCWYJv6NmKcUc3A-nOqs-160" value="" style="endArrow=classic;html=1;rounded=0;entryX=0.445;entryY=1.009;entryDx=0;entryDy=0;entryPerimeter=0;exitX=-0.023;exitY=0.693;exitDx=0;exitDy=0;exitPerimeter=0;" edge="1" parent="WIyWlLk6GJQsqaUBKTNV-1" source="KCWYJv6NmKcUc3A-nOqs-112" target="KCWYJv6NmKcUc3A-nOqs-104">
          <mxGeometry width="50" height="50" relative="1" as="geometry">
            <mxPoint x="-120" y="790" as="sourcePoint" />
            <mxPoint x="-70" y="740" as="targetPoint" />
            <Array as="points">
              <mxPoint x="-569" y="1120" />
            </Array>
          </mxGeometry>
        </mxCell>
        <mxCell id="KCWYJv6NmKcUc3A-nOqs-161" value="" style="endArrow=none;html=1;rounded=0;exitX=0.997;exitY=0.931;exitDx=0;exitDy=0;exitPerimeter=0;entryX=0.5;entryY=0;entryDx=0;entryDy=0;" edge="1" parent="WIyWlLk6GJQsqaUBKTNV-1" target="KCWYJv6NmKcUc3A-nOqs-26">
          <mxGeometry width="50" height="50" relative="1" as="geometry">
            <mxPoint x="640" y="356.91400000000004" as="sourcePoint" />
            <mxPoint x="-360" y="20" as="targetPoint" />
            <Array as="points">
              <mxPoint x="720" y="355" />
              <mxPoint x="720" y="20" />
              <mxPoint x="-280" y="20" />
            </Array>
          </mxGeometry>
        </mxCell>
        <mxCell id="KCWYJv6NmKcUc3A-nOqs-162" value="&lt;font style=&quot;font-size: 20px;&quot;&gt;1&lt;/font&gt;" style="text;html=1;align=center;verticalAlign=middle;resizable=0;points=[];autosize=1;strokeColor=none;fillColor=none;rotation=0;" vertex="1" parent="WIyWlLk6GJQsqaUBKTNV-1">
          <mxGeometry x="-309" y="7" width="30" height="40" as="geometry" />
        </mxCell>
        <mxCell id="KCWYJv6NmKcUc3A-nOqs-164" value="&lt;font style=&quot;font-size: 20px;&quot;&gt;1&lt;/font&gt;" style="text;html=1;align=center;verticalAlign=middle;resizable=0;points=[];autosize=1;strokeColor=none;fillColor=none;rotation=0;" vertex="1" parent="WIyWlLk6GJQsqaUBKTNV-1">
          <mxGeometry x="25" y="924" width="30" height="40" as="geometry" />
        </mxCell>
      </root>
    </mxGraphModel>
  </diagram>
</mxfile>
